<svg width="128" height="48" viewBox="0 0 128 48" fill="none" xmlns="http://www.w3.org/2000/svg">
<g clip-path="url(#clip0_1_3)">
<path d="M3.44174 5.34375C3.44174 5.79375 3.49269 5.8125 4.39275 5.8125C6.44762 5.8125 7.80621 6.6375 8.1968 8.1C8.31568 8.5875 8.43456 10.8375 8.4855 13.725L8.5874 18.5625H10.931H13.2915V13.05C13.2915 7.95 13.3085 7.51875 13.5972 7.425C14.2595 7.2 16.1615 6.9375 17.1295 6.9375C20.3732 6.9375 22.8186 8.49375 24.0244 11.3625C24.7376 13.05 24.8735 15.6 24.364 17.4L24.0244 18.5625L26.8435 18.525L29.6795 18.4687L29.9852 17.4375C30.4098 16.0687 30.4267 13.5937 30.0361 12.0937C29.187 8.94375 26.6566 6.43125 23.396 5.53125C21.528 5.025 18.6919 4.875 11.0498 4.875H3.44174V5.34375Z" fill="#091582"/>
<path d="M51.2132 5.34375C51.2132 5.79375 51.2471 5.8125 52.1642 5.8125C54.1511 5.8125 55.5097 6.6375 55.9512 8.08125C56.0531 8.45625 56.172 10.725 56.206 13.6312L56.2909 18.5625H58.6514H61.012V13.2187V7.875L61.4535 7.6875C62.2347 7.35 64.9689 6.9375 66.3614 6.9375C70.3014 6.9375 73.3412 8.325 76.0584 11.325C77.7057 13.1625 78.6397 14.8312 79.353 17.2875L79.7266 18.5625H82.5966C84.176 18.5625 85.4666 18.525 85.4666 18.4875C85.4666 18.4312 85.2459 17.6625 84.9572 16.7625C83.4967 12.0187 80.321 8.23125 76.415 6.54375C73.2223 5.175 70.1485 4.875 59.4666 4.875H51.2132V5.34375Z" fill="#091582"/>
<path d="M102.109 5.325C102.109 5.7375 102.177 5.75625 103.434 5.86875C105.319 6 106.304 6.65625 106.729 8.08125C106.83 8.45625 106.949 10.7437 106.983 13.6312L107.068 18.5625H109.412H111.755L111.823 13.725C111.874 9.31875 111.925 8.83125 112.248 8.04375C112.808 6.65625 114.54 5.8125 116.833 5.8125C117.495 5.8125 117.563 5.775 117.563 5.34375V4.875H109.836H102.109V5.325Z" fill="#091582"/>
<path d="M8.97799 22.8938C9.31764 23.0063 9.55539 23.2125 9.62332 23.475C9.75918 24.0375 9.75918 29.4 9.62332 29.9625C9.55539 30.225 9.31764 30.4313 8.97799 30.5438C8.57042 30.675 8.80817 30.7125 10.0649 30.7125C11.2876 30.7313 11.5763 30.675 11.2536 30.5438C10.6423 30.2813 10.5743 30.0563 10.5743 28.4438V26.9813L11.0329 27.0375C11.3895 27.075 11.7461 27.4875 12.6802 28.9125L13.8689 30.75L15.9068 30.7313C17.5201 30.7313 17.8768 30.675 17.5881 30.525C17.1126 30.2625 17.0956 29.8313 17.5371 28.875L17.8768 28.125H19.2863H20.6789L20.9845 28.9313C21.3751 29.9813 21.3581 30.3563 20.8996 30.5625C20.6109 30.675 20.9166 30.7313 21.9525 30.7313C23.3111 30.7313 23.3621 30.7125 22.9545 30.4688C22.5809 30.2438 22.2242 29.475 21.1034 26.5875C20.3562 24.6 19.6769 22.9125 19.609 22.8375C19.541 22.7625 18.8787 24.2813 18.1315 26.1938C16.5182 30.3563 16.3483 30.6375 15.5502 30.5063C14.8029 30.3563 14.6161 30.1875 13.5463 28.5938C12.3235 26.7563 12.3575 26.8688 13.0028 26.55C13.75 26.2125 14.1406 25.5938 14.1406 24.7313C14.1406 23.7938 13.6481 23.1563 12.7141 22.8938C11.7631 22.6313 8.16284 22.6313 8.97799 22.8938ZM12.0858 23.2688C12.7311 23.5125 12.9519 23.925 12.9519 24.9C12.9519 25.8938 12.2216 26.625 11.2366 26.625H10.5743V24.9563C10.5743 23.5125 10.6083 23.2688 10.88 23.1938C11.3725 23.0438 11.5253 23.0625 12.0858 23.2688ZM19.8977 26.0438C20.1864 26.7938 20.4241 27.4875 20.4241 27.5813C20.4241 27.675 19.8977 27.75 19.2353 27.75C18.59 27.75 18.0466 27.7125 18.0466 27.675C18.0466 27.6375 18.1994 27.1875 18.4032 26.6813C18.59 26.1938 18.8617 25.5 18.9976 25.1438C19.1335 24.7875 19.2693 24.5438 19.3033 24.5813C19.3372 24.6188 19.609 25.275 19.8977 26.0438Z" fill="#091582"/>
<path d="M23.1243 22.9313C23.464 23.1188 23.7696 23.85 24.7716 26.8688C25.4509 28.9125 26.0283 30.6188 26.0793 30.675C26.1132 30.7313 26.5038 29.6813 26.9114 28.3688C27.3359 27.0563 27.7435 25.9688 27.8115 25.9688C27.8964 25.9688 28.3039 27.0375 28.7285 28.35C29.1531 29.6813 29.5437 30.6938 29.6116 30.6C29.7135 30.4875 30.5966 27.7875 31.7514 24.0375C31.9042 23.55 32.1759 23.1375 32.4646 22.9688C32.8892 22.725 32.8382 22.7063 31.7174 22.7063C30.6985 22.725 30.5966 22.7438 31.0211 22.9125C31.4457 23.0813 31.4966 23.175 31.4117 23.7C31.2928 24.4313 29.9173 28.725 29.8324 28.6313C29.6455 28.425 28.236 23.8688 28.236 23.4938C28.236 23.2125 28.3719 22.9875 28.6266 22.875C28.8983 22.7625 28.5926 22.7063 27.5567 22.7063C26.1981 22.7063 26.1472 22.725 26.5717 22.9688C26.8435 23.1375 27.1322 23.5688 27.319 24.1125L27.6077 24.975L27.0303 26.8313C26.7246 27.8438 26.4019 28.6125 26.351 28.5375C26.1981 28.35 24.6697 23.6438 24.6697 23.3438C24.6697 23.2313 24.8395 23.025 25.0603 22.9125C25.366 22.7438 25.1792 22.7063 24.0753 22.7063C22.8866 22.6875 22.7677 22.725 23.1243 22.9313Z" fill="#091582"/>
<path d="M35.98 22.875C36.3196 22.9875 36.5574 23.2313 36.6253 23.475C36.6763 23.7188 36.7272 25.1625 36.7272 26.7188C36.7272 28.2563 36.6763 29.7188 36.6253 29.9625C36.5574 30.225 36.3196 30.4313 35.98 30.5438C35.1818 30.8063 39.0368 30.8063 40.1407 30.5438C43.1805 29.8125 43.7919 24.7313 41.0237 23.2313C40.3105 22.8375 39.9199 22.7813 37.8311 22.7438C36.0989 22.7063 35.5894 22.7438 35.98 22.875ZM39.5972 23.25C41.703 23.9063 42.3993 27.6375 40.769 29.3813C40.1237 30.075 39.4783 30.375 38.6802 30.375C37.5424 30.375 37.5763 30.5063 37.5763 26.7188C37.5763 23.3063 37.5763 23.2688 37.9669 23.1938C38.6462 23.0438 39.0198 23.0625 39.5972 23.25Z" fill="#091582"/>
<path d="M46.8487 23.3438C44.6919 28.9313 44.1315 30.225 43.707 30.4688C43.2824 30.7125 43.3333 30.7313 44.4542 30.7313C45.3033 30.7313 45.5411 30.675 45.2863 30.5625C44.7089 30.3 44.675 30.075 45.0655 29.0625L45.4222 28.125H46.8487H48.2752L48.5299 28.8188C48.9375 29.8875 48.9205 30.225 48.445 30.5063C48.0714 30.7125 48.1903 30.75 49.5489 30.75H51.0773L50.5509 30.3938C50.1263 30.1125 49.8376 29.55 48.9715 27.2625C48.3771 25.725 47.7318 24.0375 47.528 23.5313L47.1374 22.5938L46.8487 23.3438ZM47.5789 26.2313C47.8676 27 48.0714 27.6563 48.0375 27.6938C48.0035 27.7313 47.4431 27.75 46.7977 27.7125L45.609 27.6563L46.2034 26.1C46.526 25.2563 46.8657 24.6188 46.9336 24.6938C47.0015 24.7688 47.2902 25.4625 47.5789 26.2313Z" fill="#091582"/>
<path d="M50.3301 23.6625C50.3471 24.2063 50.398 24.4688 50.432 24.2625C50.5678 23.475 51.3151 23.1 52.4868 23.2313C52.6397 23.25 52.6906 24.075 52.6906 26.7C52.6906 30.3 52.6736 30.4125 51.9264 30.6188C51.7396 30.6563 52.317 30.7125 53.2001 30.7125C54.0832 30.7125 54.6606 30.6563 54.4738 30.6188C53.7266 30.4125 53.7096 30.3 53.7096 26.6438V23.1375L54.5417 23.175C55.5437 23.2125 55.7135 23.3063 56.0192 24.075L56.2399 24.6563L56.2569 23.9625C56.2569 22.65 56.3588 22.6875 53.1831 22.6875H50.3131L50.3301 23.6625Z" fill="#091582"/>
<path d="M58.7364 24.675C58.2948 25.8 57.6155 27.5062 57.2249 28.4625C56.7494 29.6812 56.4098 30.2812 56.1041 30.4687C55.6965 30.7125 55.7305 30.7312 56.8513 30.7312C57.7004 30.7312 57.9382 30.675 57.6835 30.5625C57.1061 30.3 57.0721 30.075 57.4627 29.0625L57.8193 28.125H59.2458H60.6723L60.9271 28.8187C61.3347 29.8875 61.3177 30.225 60.8422 30.5062C60.4686 30.7125 60.5874 30.75 61.946 30.7312C62.9989 30.7312 63.3556 30.675 63.1008 30.5625C62.5744 30.3187 62.3706 29.9062 61.029 26.3812C60.3667 24.6375 59.7553 23.1 59.6874 22.9312C59.5685 22.725 59.3138 23.1937 58.7364 24.675ZM59.9761 26.2312C60.2648 27 60.4686 27.6562 60.4346 27.6937C60.4006 27.7312 59.8402 27.75 59.1949 27.7125L58.0061 27.6562L58.6005 26.1C58.9232 25.2562 59.2628 24.6187 59.3307 24.6937C59.3987 24.7687 59.6874 25.4625 59.9761 26.2312Z" fill="#091582"/>
<path d="M66.2765 22.8938C66.4973 23.0063 66.752 23.175 66.82 23.3063C66.8879 23.4375 66.9558 24.9563 66.9558 26.7188C66.9558 28.4625 66.8879 30 66.82 30.1313C66.752 30.2625 66.4973 30.45 66.2765 30.5438C65.9709 30.675 66.6501 30.7125 68.6371 30.6938L71.4222 30.6563L71.643 29.8125C71.7788 29.3438 71.8807 28.95 71.8807 28.9313C71.8807 28.8938 71.626 29.175 71.3203 29.55C70.7938 30.1875 70.7429 30.2063 69.4522 30.225C68.722 30.225 68.0936 30.1875 68.0427 30.1313C67.8729 29.9438 67.9748 23.3813 68.1616 23.1375C68.2635 23.0063 68.5012 22.8563 68.705 22.8188C68.9088 22.7813 68.3484 22.725 67.4653 22.725C66.2426 22.7063 65.9539 22.7625 66.2765 22.8938Z" fill="#091582"/>
<path d="M72.8148 22.8188C73.562 23.025 73.579 23.1563 73.579 26.7188C73.579 30.2813 73.562 30.4125 72.8148 30.6188C72.6279 30.6563 73.2054 30.7125 74.0884 30.7125C74.9715 30.7125 75.5489 30.6563 75.3621 30.6188C74.6149 30.4125 74.5979 30.2813 74.5979 26.7188C74.5979 23.1563 74.6149 23.025 75.3621 22.8188C75.5489 22.7813 74.9715 22.725 74.0884 22.725C73.2054 22.725 72.6279 22.7813 72.8148 22.8188Z" fill="#091582"/>
<path d="M76.3811 22.8188C77.1283 23.0438 77.1453 23.1563 77.1453 26.7188C77.1453 30.2813 77.1283 30.3938 76.3811 30.6188C76.1942 30.675 77.1453 30.7125 78.5038 30.6938C81.3739 30.6375 81.9683 30.4125 82.3928 29.1938C82.6136 28.5563 82.5966 28.4063 82.3419 27.8063C82.172 27.4125 81.8664 27.075 81.5777 26.9438L81.0852 26.7375L81.5607 26.25C82.206 25.575 82.3588 24.8813 82.0192 24.075C81.5607 23.025 80.9493 22.8 78.334 22.7625C77.0773 22.725 76.1942 22.7625 76.3811 22.8188ZM80.5757 23.6063C81.3059 24.3188 81.3399 25.3313 80.6436 25.9875C80.27 26.3438 79.9983 26.4375 79.1662 26.4375H78.1642V24.75V23.0625H79.0982C79.8794 23.0625 80.1172 23.1375 80.5757 23.6063ZM80.27 27.075C82.206 27.975 81.4758 30.375 79.2511 30.375C78.1982 30.375 78.1642 30.3 78.1642 28.4813V26.8125H78.9284C79.353 26.8125 79.9643 26.925 80.27 27.075Z" fill="#091582"/>
<path d="M83.7854 22.8938C84.0401 23.0063 84.2948 23.2688 84.3458 23.4938C84.4816 24.0375 84.4647 29.4 84.3458 29.9625C84.2778 30.225 84.0401 30.4313 83.7004 30.5438C83.2929 30.675 83.5306 30.7125 84.7873 30.7125C86.0101 30.7313 86.2988 30.675 85.9761 30.5438C85.3647 30.2813 85.2968 30.0563 85.2968 28.4438V26.9813L85.7553 27.0375C86.1119 27.075 86.4686 27.4875 87.4026 28.9125L88.5914 30.75L90.7142 30.7313C92.3615 30.7313 92.7521 30.675 92.3954 30.525C91.818 30.3 91.7841 29.8875 92.2596 28.875L92.5992 28.125H94.0088H95.4013L95.707 28.9313C96.0976 29.9813 96.0806 30.3563 95.6221 30.5625C95.3334 30.675 95.6391 30.7313 96.675 30.7313C98.0336 30.7313 98.0845 30.7125 97.6769 30.4688C97.3033 30.2438 96.9467 29.475 95.8259 26.5875C95.0786 24.6 94.3993 22.9125 94.3314 22.8375C94.2635 22.7625 93.6012 24.2813 92.8539 26.1938C91.2406 30.3563 91.0708 30.6375 90.2726 30.5063C89.5254 30.3563 89.3386 30.1875 88.2687 28.5938C87.046 26.7563 87.0799 26.8688 87.7253 26.55C88.4725 26.2125 88.8631 25.5938 88.8631 24.7313C88.8631 23.7938 88.3706 23.1563 87.4366 22.8938C86.4686 22.6313 83.123 22.6313 83.7854 22.8938ZM86.8082 23.2688C87.4536 23.5125 87.6743 23.925 87.6743 24.9C87.6743 25.8938 86.9441 26.625 85.9591 26.625H85.2968V24.9563C85.2968 23.5125 85.3308 23.2688 85.6025 23.1938C86.095 23.0438 86.2478 23.0625 86.8082 23.2688ZM94.6201 26.0438C94.9088 26.7938 95.1466 27.4875 95.1466 27.5813C95.1466 27.675 94.6201 27.75 93.9578 27.75C93.3125 27.75 92.769 27.7125 92.769 27.675C92.769 27.6375 92.9219 27.1875 93.1257 26.6813C93.3125 26.1938 93.5842 25.5 93.72 25.1438C93.8559 24.7875 93.9918 24.5438 94.0257 24.5813C94.0597 24.6188 94.3314 25.275 94.6201 26.0438Z" fill="#091582"/>
<path d="M98.7808 22.875C99.0525 22.9688 99.3412 23.1563 99.4092 23.2875C99.579 23.5688 99.6129 29.325 99.4601 29.9625C99.3922 30.225 99.1544 30.4313 98.8148 30.5438C98.4072 30.675 98.6449 30.7125 99.9016 30.7125C101.124 30.7313 101.413 30.675 101.09 30.5438C100.479 30.2813 100.411 30.0563 100.411 28.4438V26.9813L100.87 27.0375C101.226 27.075 101.583 27.4875 102.517 28.9125L103.723 30.75H104.657L105.591 30.7313L104.996 30.4125C104.657 30.225 104.011 29.5313 103.502 28.7813C102.16 26.8313 102.177 26.8688 102.84 26.55C103.604 26.2125 103.977 25.5938 103.977 24.6938C103.977 23.8125 103.451 23.175 102.517 22.8938C101.702 22.65 98.0336 22.6313 98.7808 22.875ZM102.109 23.3438C103.519 24.15 102.755 26.625 101.09 26.625H100.411V24.9563C100.411 23.5125 100.445 23.2688 100.717 23.1938C101.277 23.025 101.617 23.0625 102.109 23.3438Z" fill="#091582"/>
<path d="M105.37 22.9875C106.066 23.4 108.376 27.2813 108.291 27.8813C108.274 28.0125 108.257 28.6313 108.24 29.25C108.223 30.3375 108.206 30.375 107.68 30.5438C107.238 30.675 107.459 30.7125 108.732 30.7125C109.616 30.7125 110.193 30.675 110.006 30.6188C109.412 30.4688 109.242 30 109.259 28.6125C109.259 27.3 109.276 27.2625 110.397 25.3125C111.229 23.8688 111.704 23.25 112.129 23.025L112.723 22.6875L111.365 22.7063C110.38 22.7063 110.108 22.7625 110.397 22.875C110.974 23.1375 110.855 23.7375 109.938 25.3688L109.106 26.8313L108.614 26.025C107.697 24.5438 107.17 23.4563 107.289 23.25C107.357 23.1375 107.578 22.9688 107.781 22.875C108.019 22.7625 107.612 22.7063 106.525 22.7063C104.996 22.7063 104.945 22.725 105.37 22.9875Z" fill="#091582"/>
<path d="M130.096 34.275C129.638 35.2687 129.009 36.4875 128.687 36.975C127.787 38.3437 126.326 39.5062 124.951 39.9937C123.83 40.3875 123.473 40.4062 118.548 40.4062C113.538 40.4062 113.318 40.3875 112.859 40.0125C112.044 39.3375 111.908 38.775 111.823 35.5687L111.738 32.625H109.412H107.085L107 35.8687C106.932 38.85 106.898 39.1875 106.508 40.05C105.964 41.2687 105.149 41.775 103.4 41.925C102.194 42.0562 102.109 42.075 102.109 42.4875V42.9375H115.407H128.704L130.181 37.8375C131.625 32.7937 131.693 32.4375 131.064 32.4375C130.979 32.4375 130.538 33.2625 130.096 34.275Z" fill="#091582"/>
<path d="M8.53645 34.5375C8.53645 37.4625 8.28172 39.6562 7.85716 40.4062C7.36467 41.2875 6.2778 41.8125 4.71542 41.9437C3.50967 42.0562 3.44174 42.075 3.44174 42.4875V42.9375H10.8291H18.2164V42.4687C18.2164 42.0375 18.1485 42 17.4522 42C15.1766 42 13.835 41.0625 13.4783 39.225C13.3764 38.6812 13.2915 36.975 13.2915 35.4375V32.625H10.914H8.53645V34.5375Z" fill="#091582"/>
<path d="M22.0714 32.8875C22.1393 33.0187 23.6508 35.3437 25.4169 38.0437L28.6266 42.9375H33.1949H37.7461V42.3937C37.7461 41.8875 37.6952 41.85 36.8121 41.7375C35.3856 41.55 33.6534 40.7625 32.5495 39.7875C31.5136 38.85 30.0701 36.9937 28.27 34.2562L27.2171 32.625H24.5678C22.3941 32.625 21.9525 32.6625 22.0714 32.8875Z" fill="#091582"/>
<path d="M56.223 35.8875C56.155 38.85 56.1041 39.225 55.7305 40.05C55.1701 41.2875 54.3549 41.775 52.5718 41.9437C51.332 42.0375 51.2302 42.075 51.2471 42.45L51.2811 42.8438H60.5195C68.739 42.8438 69.9447 42.8062 71.5411 42.5062C74.9885 41.8312 77.8585 40.5 80.0323 38.55C81.238 37.5 83.0721 35.0812 83.8193 33.5812L84.2948 32.625H81.5097H78.7076L77.9434 33.9937C76.0074 37.4062 73.4261 39.5625 70.0976 40.5187C68.3144 41.025 65.1557 41.0812 62.8801 40.6125C61.997 40.4437 61.2158 40.2375 61.1479 40.2C61.0799 40.1437 61.012 38.4187 61.012 36.3562V32.625H58.6515H56.3079L56.223 35.8875Z" fill="#091582"/>
</g>
<defs>
<clipPath id="clip0_1_3">
<rect width="128" height="48" fill="white"/>
</clipPath>
</defs>
</svg>
