<!--?xml version="1.0" standalone="no"?-->

<svg version="1.0" xmlns="http://www.w3.org/2000/svg" width="100%" height="100%" viewBox="0 0 781.000000 256.000000" preserveAspectRatio="xMidYMid meet">
<style>
/***************************************************
 * Generated by SVG Artista on 6/3/2024, 2:02:15 PM
 * MIT license (https://opensource.org/licenses/MIT)
 * W. https://svgartista.net
 **************************************************/

@keyframes animate-svg-fill-1 {
  0% {
    fill: transparent;
  }

  100% {
    fill: rgb(0, 0, 0);
  }
}

.svg-elem-1 {
  animation: animate-svg-fill-1 0.7s ease-in 0.8s both;
}

@keyframes animate-svg-fill-2 {
  0% {
    fill: transparent;
  }

  100% {
    fill: rgb(0, 0, 0);
  }
}

.svg-elem-2 {
  animation: animate-svg-fill-2 0.7s ease-in 0.9s both;
}

@keyframes animate-svg-fill-3 {
  0% {
    fill: transparent;
  }

  100% {
    fill: rgb(0, 0, 0);
  }
}

.svg-elem-3 {
  animation: animate-svg-fill-3 0.7s ease-in 1s both;
}

@keyframes animate-svg-fill-4 {
  0% {
    fill: transparent;
  }

  100% {
    fill: rgb(0, 0, 0);
  }
}

.svg-elem-4 {
  animation: animate-svg-fill-4 0.7s ease-in 1.1s both;
}

@keyframes animate-svg-fill-5 {
  0% {
    fill: transparent;
  }

  100% {
    fill: rgb(0, 0, 0);
  }
}

.svg-elem-5 {
  animation: animate-svg-fill-5 0.7s ease-in 1.2000000000000002s both;
}

@keyframes animate-svg-fill-6 {
  0% {
    fill: transparent;
  }

  100% {
    fill: rgb(0, 0, 0);
  }
}

.svg-elem-6 {
  animation: animate-svg-fill-6 0.7s ease-in 1.3s both;
}

@keyframes animate-svg-fill-7 {
  0% {
    fill: transparent;
  }

  100% {
    fill: rgb(0, 0, 0);
  }
}

.svg-elem-7 {
  animation: animate-svg-fill-7 0.7s ease-in 1.4000000000000001s both;
}

@keyframes animate-svg-fill-8 {
  0% {
    fill: transparent;
  }

  100% {
    fill: rgb(0, 0, 0);
  }
}

.svg-elem-8 {
  animation: animate-svg-fill-8 0.7s ease-in 1.5s both;
}

@keyframes animate-svg-fill-9 {
  0% {
    fill: transparent;
  }

  100% {
    fill: rgb(0, 0, 0);
  }
}

.svg-elem-9 {
  animation: animate-svg-fill-9 0.7s ease-in 1.6s both;
}

@keyframes animate-svg-fill-10 {
  0% {
    fill: transparent;
  }

  100% {
    fill: rgb(0, 0, 0);
  }
}

.svg-elem-10 {
  animation: animate-svg-fill-10 0.7s ease-in 1.7000000000000002s both;
}

@keyframes animate-svg-fill-11 {
  0% {
    fill: transparent;
  }

  100% {
    fill: rgb(0, 0, 0);
  }
}

.svg-elem-11 {
  animation: animate-svg-fill-11 0.7s ease-in 1.8s both;
}

@keyframes animate-svg-fill-12 {
  0% {
    fill: transparent;
  }

  100% {
    fill: rgb(0, 0, 0);
  }
}

.svg-elem-12 {
  animation: animate-svg-fill-12 0.7s ease-in 1.9000000000000001s both;
}

@keyframes animate-svg-fill-13 {
  0% {
    fill: transparent;
  }

  100% {
    fill: rgb(0, 0, 0);
  }
}

.svg-elem-13 {
  animation: animate-svg-fill-13 0.7s ease-in 2s both;
}

@keyframes animate-svg-fill-14 {
  0% {
    fill: transparent;
  }

  100% {
    fill: rgb(0, 0, 0);
  }
}

.svg-elem-14 {
  animation: animate-svg-fill-14 0.7s ease-in 2.1s both;
}

@keyframes animate-svg-fill-15 {
  0% {
    fill: transparent;
  }

  100% {
    fill: rgb(0, 0, 0);
  }
}

.svg-elem-15 {
  animation: animate-svg-fill-15 0.7s ease-in 2.2s both;
}

@keyframes animate-svg-fill-16 {
  0% {
    fill: transparent;
  }

  100% {
    fill: rgb(0, 0, 0);
  }
}

.svg-elem-16 {
  animation: animate-svg-fill-16 0.7s ease-in 2.3s both;
}

@keyframes animate-svg-fill-17 {
  0% {
    fill: transparent;
  }

  100% {
    fill: rgb(0, 0, 0);
  }
}

.svg-elem-17 {
  animation: animate-svg-fill-17 0.7s ease-in 2.4000000000000004s both;
}

@keyframes animate-svg-fill-18 {
  0% {
    fill: transparent;
  }

  100% {
    fill: rgb(0, 0, 0);
  }
}

.svg-elem-18 {
  animation: animate-svg-fill-18 0.7s ease-in 2.5s both;
}

@keyframes animate-svg-fill-19 {
  0% {
    fill: transparent;
  }

  100% {
    fill: rgb(0, 0, 0);
  }
}

.svg-elem-19 {
  animation: animate-svg-fill-19 0.7s ease-in 2.6s both;
}

</style>

<g transform="translate(0.000000,256.000000) scale(0.100000,-0.100000)" fill="#000000" stroke="none">
<path d="M210 2275 c0 -24 3 -25 56 -25 121 0 201 -44 224 -122 7 -26 14 -146
17 -300 l6 -258 138 0 139 0 0 294 c0 272 1 295 18 300 39 12 151 26 208 26
191 0 335 -83 406 -236 42 -90 50 -226 20 -322 l-20 -62 166 2 167 3 18 55
c25 73 26 205 3 285 -50 168 -199 302 -391 350 -110 27 -277 35 -727 35 l-448
0 0 -25z" class="svg-elem-1"></path>
<path d="M3023 2275 c0 -24 2 -25 56 -25 117 0 197 -44 223 -121 6 -20 13
-141 15 -296 l5 -263 139 0 139 0 0 285 0 285 26 10 c46 18 207 40 289 40 232
0 411 -74 571 -234 97 -98 152 -187 194 -318 l22 -68 169 0 c93 0 169 2 169 4
0 3 -13 44 -30 92 -86 253 -273 455 -503 545 -188 73 -369 89 -998 89 l-486 0
0 -25z" class="svg-elem-2"></path>
<path d="M6020 2276 c0 -22 4 -23 78 -29 111 -7 169 -42 194 -118 6 -20 13
-142 15 -296 l5 -263 138 0 138 0 4 258 c3 235 6 261 25 303 33 74 135 119
270 119 39 0 43 2 43 25 l0 25 -455 0 -455 0 0 -24z" class="svg-elem-3"></path>
<path d="M536 1339 c20 -6 34 -17 38 -31 8 -30 8 -316 0 -346 -4 -14 -18 -25
-38 -31 -24 -7 -10 -9 64 -9 72 -1 89 2 70 9 -36 14 -40 26 -40 112 l0 78 27
-3 c21 -2 42 -24 97 -100 l70 -98 120 1 c95 0 116 3 99 11 -28 14 -29 37 -3
88 l20 40 83 0 82 0 18 -43 c23 -56 22 -76 -5 -87 -17 -6 1 -9 62 -9 80 0 83
1 59 14 -22 12 -43 53 -109 207 -44 106 -84 196 -88 200 -4 4 -43 -77 -87
-179 -95 -222 -105 -237 -152 -230 -44 8 -55 17 -118 102 -72 98 -70 92 -32
109 44 18 67 51 67 97 0 50 -29 84 -84 98 -56 14 -268 14 -220 0z m183 -20
c38 -13 51 -35 51 -87 0 -53 -43 -92 -101 -92 l-39 0 0 89 c0 77 2 90 18 94
29 8 38 7 71 -4z m460 -148 c17 -40 31 -77 31 -82 0 -5 -31 -9 -70 -9 -38 0
-70 2 -70 4 0 2 9 26 21 53 11 26 27 63 35 82 8 19 16 32 18 30 2 -2 18 -37
35 -78z" class="svg-elem-4"></path>
<path d="M1369 1337 c20 -10 38 -49 97 -210 40 -109 74 -200 77 -203 2 -3 25
53 49 123 25 70 49 128 53 128 5 0 29 -57 54 -127 25 -71 48 -125 52 -120 6 6
58 150 126 350 9 26 25 48 42 57 25 13 22 14 -44 14 -60 -1 -66 -2 -41 -11 25
-9 28 -14 23 -42 -7 -39 -88 -268 -93 -263 -11 11 -94 254 -94 274 0 15 8 27
23 33 16 6 -2 9 -63 9 -80 0 -83 -1 -58 -14 16 -9 33 -32 44 -61 l17 -46 -34
-99 c-18 -54 -37 -95 -40 -91 -9 10 -99 261 -99 277 0 6 10 17 23 23 18 9 7
11 -58 11 -70 1 -77 -1 -56 -12z" class="svg-elem-5"></path>
<path d="M2126 1340 c20 -6 34 -19 38 -32 3 -13 6 -90 6 -173 0 -82 -3 -160
-6 -173 -4 -14 -18 -25 -38 -31 -47 -14 180 -14 245 0 179 39 215 310 52 390
-42 21 -65 24 -188 26 -102 2 -132 0 -109 -7z m213 -20 c124 -35 165 -234 69
-327 -38 -37 -76 -53 -123 -53 -67 0 -65 -7 -65 195 0 182 0 184 23 188 40 8
62 7 96 -3z" class="svg-elem-6"></path>
<path d="M2766 1315 c-127 -298 -160 -367 -185 -380 -25 -13 -22 -14 44 -14
50 0 64 3 49 9 -34 14 -36 26 -13 80 l21 50 84 0 84 0 15 -37 c24 -57 23 -75
-5 -90 -22 -11 -15 -13 65 -13 l90 0 -31 19 c-25 15 -42 45 -93 167 -35 82
-73 172 -85 199 l-23 50 -17 -40z m43 -154 c17 -41 29 -76 27 -78 -2 -2 -35
-3 -73 -1 l-70 3 35 83 c19 45 39 79 43 75 4 -4 21 -41 38 -82z" class="svg-elem-7"></path>
<path d="M2971 1298 c1 -29 4 -43 6 -32 8 42 52 62 121 55 9 -1 12 -45 12
-185 0 -192 -1 -198 -45 -209 -11 -2 23 -5 75 -5 52 0 86 3 75 5 -44 11 -45
17 -45 212 l0 187 49 -2 c59 -2 69 -7 87 -48 l13 -31 1 37 c0 70 6 68 -181 68
l-169 0 1 -52z" class="svg-elem-8"></path>
<path d="M3466 1244 c-26 -60 -66 -151 -89 -202 -28 -65 -48 -97 -66 -107 -24
-13 -22 -14 44 -14 50 0 64 3 49 9 -34 14 -36 26 -13 80 l21 50 84 0 84 0 15
-37 c24 -57 23 -75 -5 -90 -22 -11 -15 -13 65 -12 62 0 83 3 68 9 -31 13 -43
35 -122 223 -39 93 -75 175 -79 184 -7 11 -22 -14 -56 -93z m73 -83 c17 -41
29 -76 27 -78 -2 -2 -35 -3 -73 -1 l-70 3 35 83 c19 45 39 79 43 75 4 -4 21
-41 38 -82z" class="svg-elem-9"></path>
<path d="M3910 1339 c13 -6 28 -15 32 -22 4 -7 8 -88 8 -182 0 -93 -4 -175 -8
-182 -4 -7 -19 -17 -32 -22 -18 -7 22 -9 139 -8 l164 2 13 45 c8 25 14 46 14
47 0 2 -15 -13 -33 -33 -31 -34 -34 -35 -110 -36 -43 0 -80 2 -83 5 -10 10 -4
360 7 373 6 7 20 15 32 17 12 2 -21 5 -73 5 -72 1 -89 -2 -70 -9z" class="svg-elem-10"></path>
<path d="M4295 1343 c44 -11 45 -18 45 -208 0 -190 -1 -197 -45 -208 -11 -2
23 -5 75 -5 52 0 86 3 75 5 -44 11 -45 18 -45 208 0 190 1 197 45 208 11 2
-23 5 -75 5 -52 0 -86 -3 -75 -5z" class="svg-elem-11"></path>
<path d="M4505 1343 c44 -12 45 -18 45 -208 0 -190 -1 -196 -45 -208 -11 -3
45 -5 125 -4 169 3 204 15 229 80 13 34 12 42 -3 74 -10 21 -28 39 -45 46
l-29 11 28 26 c38 36 47 73 27 116 -27 56 -63 68 -217 70 -74 2 -126 0 -115
-3z m247 -42 c43 -38 45 -92 4 -127 -22 -19 -38 -24 -87 -24 l-59 0 0 90 0 90
55 0 c46 0 60 -4 87 -29z m-18 -185 c114 -48 71 -176 -60 -176 -62 0 -64 4
-64 101 l0 89 45 0 c25 0 61 -6 79 -14z" class="svg-elem-12"></path>
<path d="M4941 1339 c15 -6 30 -20 33 -32 8 -29 7 -315 0 -345 -4 -14 -18 -25
-38 -31 -24 -7 -10 -9 64 -9 72 -1 89 2 70 9 -36 14 -40 26 -40 112 l0 78 27
-3 c21 -2 42 -24 97 -100 l70 -98 125 1 c97 0 120 3 99 11 -34 12 -36 34 -8
88 l20 40 83 0 82 0 18 -43 c23 -56 22 -76 -5 -87 -17 -6 1 -9 62 -9 80 0 83
1 59 14 -22 12 -43 53 -109 207 -44 106 -84 196 -88 200 -4 4 -43 -77 -87
-179 -95 -222 -105 -237 -152 -230 -44 8 -55 17 -118 102 -72 98 -70 92 -32
109 44 18 67 51 67 97 0 50 -29 84 -84 98 -57 14 -254 14 -215 0z m178 -20
c38 -13 51 -35 51 -87 0 -53 -43 -92 -101 -92 l-39 0 0 89 c0 77 2 90 18 94
29 8 38 7 71 -4z m460 -148 c17 -40 31 -77 31 -82 0 -5 -31 -9 -70 -9 -38 0
-70 2 -70 4 0 2 9 26 21 53 11 26 27 63 35 82 8 19 16 32 18 30 2 -2 18 -37
35 -78z" class="svg-elem-13"></path>
<path d="M5824 1340 c16 -5 33 -15 37 -22 10 -15 12 -322 3 -356 -4 -14 -18
-25 -38 -31 -24 -7 -10 -9 64 -9 72 -1 89 2 70 9 -36 14 -40 26 -40 112 l0 78
27 -3 c21 -2 42 -24 97 -100 l71 -98 55 0 55 1 -35 17 c-20 10 -58 47 -88 87
-79 104 -78 102 -39 119 45 18 67 51 67 99 0 47 -31 81 -86 96 -48 13 -264 14
-220 1z m196 -25 c83 -43 38 -175 -60 -175 l-40 0 0 89 c0 77 2 90 18 94 33 9
53 7 82 -8z" class="svg-elem-14"></path>
<path d="M6212 1334 c41 -22 177 -229 172 -261 -1 -7 -2 -40 -3 -73 -1 -58 -2
-60 -33 -69 -26 -7 -13 -9 62 -9 52 0 86 2 75 5 -35 8 -45 33 -44 107 0 70 1
72 67 176 49 77 77 110 102 122 l35 18 -80 -1 c-58 0 -74 -3 -57 -9 34 -14 27
-46 -27 -133 l-49 -78 -29 43 c-54 79 -85 137 -78 148 4 6 17 15 29 20 14 6
-10 9 -74 9 -90 0 -93 -1 -68 -15z" class="svg-elem-15"></path>
<path d="M7668 732 c-27 -53 -64 -118 -83 -144 -53 -73 -139 -135 -220 -161
-66 -21 -87 -22 -377 -22 -295 0 -308 1 -335 21 -48 36 -56 66 -61 237 l-5
157 -137 0 -137 0 -5 -173 c-4 -159 -6 -177 -29 -223 -32 -65 -80 -92 -183
-100 -71 -7 -76 -8 -76 -30 l0 -24 783 0 783 0 87 272 c85 269 89 288 52 288
-5 0 -31 -44 -57 -98z" class="svg-elem-16"></path>
<path d="M510 718 c0 -156 -15 -273 -40 -313 -29 -47 -93 -75 -185 -82 -71 -6
-75 -7 -75 -29 l0 -24 435 0 435 0 0 25 c0 23 -4 25 -45 25 -134 0 -213 50
-234 148 -6 29 -11 120 -11 202 l0 150 -140 0 -140 0 0 -102z" class="svg-elem-17"></path>
<path d="M1307 806 c4 -7 93 -131 197 -275 l189 -261 269 0 268 0 0 29 c0 27
-3 29 -55 35 -84 10 -186 52 -251 104 -61 50 -146 149 -252 295 l-62 87 -156
0 c-128 0 -154 -2 -147 -14z" class="svg-elem-18"></path>
<path d="M3318 646 c-4 -158 -7 -178 -29 -222 -33 -66 -81 -92 -186 -101 -73
-5 -79 -7 -78 -27 l2 -21 544 0 c484 0 555 2 649 18 203 36 372 107 500 211
71 56 179 185 223 265 l28 51 -164 0 -165 0 -45 -73 c-114 -182 -266 -297
-462 -348 -105 -27 -291 -30 -425 -5 -52 9 -98 20 -102 22 -4 3 -8 95 -8 205
l0 199 -139 0 -138 0 -5 -174z" class="svg-elem-19"></path>
</g>
</svg>
